<svg width="23" height="22" viewBox="0 0 23 22" fill="none" xmlns="http://www.w3.org/2000/svg">
<path d="M19.1703 21.3739H4.02933C2.89982 21.3739 1.98085 20.455 1.98085 19.3254V8.54772C1.98085 8.15423 2.29983 7.83521 2.69336 7.83521C3.0869 7.83521 3.40588 8.15423 3.40588 8.54772V19.3254C3.40588 19.6692 3.68554 19.9488 4.02933 19.9488H19.1703C19.5141 19.9488 19.7937 19.6692 19.7937 19.3254V8.54772C19.7937 8.15423 20.1127 7.83521 20.5062 7.83521C20.8998 7.83521 21.2187 8.15423 21.2187 8.54772V19.3254C21.2187 20.4549 20.2998 21.3739 19.1703 21.3739Z" fill="#040404"/>
<path d="M22.2875 11.0413C22.1052 11.0413 21.9228 10.9718 21.7837 10.8326L12.9223 1.9713C12.1931 1.24205 11.0065 1.24205 10.2773 1.9713L1.41593 10.8327C1.13769 11.1109 0.686533 11.1109 0.408296 10.8327C0.130015 10.5544 0.130015 10.1033 0.408296 9.82504L9.26966 0.963631C10.5545 -0.32121 12.6452 -0.32121 13.93 0.963631L22.7913 9.825C23.0696 10.1033 23.0696 10.5544 22.7913 10.8326C22.6522 10.9718 22.4699 11.0413 22.2875 11.0413Z" fill="#040404"/>
<path d="M14.4499 21.3739H8.74976C8.35623 21.3739 8.03725 21.0549 8.03725 20.6614V14.3378C8.03725 13.1101 9.0361 12.1112 10.2639 12.1112H12.9358C14.1635 12.1112 15.1624 13.1101 15.1624 14.3378V20.6614C15.1624 21.0549 14.8434 21.3739 14.4499 21.3739ZM9.46228 19.9489H13.7374V14.3378C13.7374 13.8958 13.3778 13.5362 12.9358 13.5362H10.2639C9.82187 13.5362 9.46228 13.8958 9.46228 14.3378V19.9489Z" fill="#040404"/>
</svg>
